<?xml version="1.0" encoding="UTF-8"?>
<!DOCTYPE svg PUBLIC "-//W3C//DTD SVG 1.1//EN" "http://www.w3.org/Graphics/SVG/1.1/DTD/svg11.dtd">
<svg version="1.1" xmlns="http://www.w3.org/2000/svg" xmlns:xlink="http://www.w3.org/1999/xlink" x="0" y="0" width="300" height="363" viewBox="0, 0, 300, 363">
  <g id="Layer_1">
    <path d="M157.628,0 C155.296,-0.004 152.863,0.094 150.327,0.296 C86.217,5.457 103.219,73.159 102.268,95.83 C101.097,112.41 97.734,125.475 86.327,141.684 C72.926,157.615 54.058,183.398 45.12,210.239 C40.901,222.906 38.894,235.818 40.748,248.038 C40.167,248.557 39.614,249.102 39.088,249.663 C35.154,253.862 32.246,258.95 29.007,262.375 C25.98,265.393 21.668,266.541 16.93,268.24 C12.189,269.941 6.985,272.447 3.825,278.507 C3.825,278.507 3.825,278.509 3.823,278.51 C3.818,278.52 3.813,278.53 3.807,278.54 L3.807,278.54 C0.947,283.879 1.798,290.028 2.671,295.725 C3.544,301.422 4.429,306.805 3.255,310.457 C-0.497,320.708 -0.976,327.798 1.665,332.941 C4.312,338.095 9.754,340.37 15.904,341.654 C28.205,344.222 44.864,343.584 57.993,350.54 L59.121,348.411 L58.005,350.546 C72.06,357.892 86.309,360.501 97.677,357.905 C105.92,356.023 112.61,351.117 116.047,343.568 C124.938,343.525 134.696,339.76 150.326,338.9 C160.929,338.046 174.175,342.664 189.41,341.818 C189.808,343.47 190.385,345.06 191.174,346.57 C191.182,346.585 191.189,346.601 191.198,346.616 C197.104,358.422 208.078,363.822 219.773,362.899 C231.483,361.975 243.933,355.073 253.998,343.101 L252.153,341.551 L254.012,343.084 C263.604,331.457 279.527,326.635 290.085,320.27 C295.364,317.087 299.647,313.102 299.978,307.314 C300.309,301.528 296.911,295.045 289.098,286.375 C289.098,286.375 289.095,286.373 289.095,286.373 C289.093,286.369 289.089,286.366 289.086,286.362 C286.519,283.462 285.294,278.087 283.978,272.364 C282.663,266.643 281.195,260.473 276.497,256.474 L276.497,256.474 C276.487,256.466 276.478,256.458 276.469,256.45 C276.469,256.45 276.469,256.45 276.469,256.45 C274.599,254.821 272.656,253.716 270.699,252.973 C277.231,233.609 274.668,214.327 268.075,196.903 C259.983,175.519 245.855,156.886 235.066,144.139 C222.989,128.912 211.177,114.455 211.409,93.102 C211.769,60.513 214.995,0.079 157.627,0 z M165.395,50.206 C168.65,50.206 171.43,51.16 174.286,53.232 C177.187,55.337 179.278,57.972 180.962,61.652 C182.616,65.238 183.411,68.746 183.489,72.91 C183.489,73.019 183.489,73.112 183.52,73.222 C183.552,77.494 182.819,81.127 181.196,84.838 C180.271,86.955 179.208,88.733 177.935,90.271 C177.503,90.064 177.055,89.865 176.589,89.673 L176.589,89.673 C173.364,88.293 170.89,87.414 168.828,86.699 C169.576,85.801 170.198,84.735 170.745,83.404 C171.572,81.392 171.978,79.428 172.056,77.089 C172.056,76.995 172.087,76.917 172.087,76.808 C172.134,74.563 171.837,72.645 171.182,70.68 C170.496,68.622 169.622,67.141 168.359,65.909 C167.095,64.677 165.832,64.116 164.319,64.069 C164.248,64.065 164.177,64.065 164.107,64.065 C162.684,64.069 161.448,64.557 160.17,65.627 C158.828,66.75 157.83,68.184 157.003,70.18 C156.176,72.176 155.771,74.156 155.693,76.511 C155.677,76.604 155.677,76.682 155.677,76.776 C155.65,78.07 155.732,79.255 155.932,80.407 C153.02,78.956 150.276,77.967 147.7,77.355 C147.553,76.241 147.468,75.092 147.441,73.891 L147.441,73.564 C147.394,69.307 148.096,65.658 149.734,61.947 C151.372,58.236 153.4,55.57 156.254,53.403 C159.109,51.235 161.917,50.237 165.239,50.206 C165.291,50.206 165.343,50.206 165.395,50.206 z M120.838,53.733 C122.998,53.738 124.93,54.459 126.929,56.054 C129.097,57.785 130.735,59.999 132.108,63.118 C133.481,66.236 134.214,69.355 134.416,73.034 L134.416,73.065 C134.515,74.611 134.503,76.066 134.381,77.475 C133.954,77.596 133.535,77.727 133.125,77.868 C130.797,78.67 128.745,79.761 126.956,80.942 C127.131,79.707 127.157,78.454 127.023,77.057 C127.007,76.979 127.007,76.917 127.007,76.839 C126.82,74.983 126.43,73.424 125.775,71.849 C125.073,70.212 124.293,69.058 123.263,68.169 C122.33,67.364 121.449,66.994 120.479,67.001 C120.379,67.001 120.277,67.007 120.175,67.015 C119.083,67.109 118.178,67.639 117.32,68.684 C116.462,69.729 115.901,71.023 115.495,72.738 C115.09,74.453 114.981,76.137 115.152,78.07 C115.152,78.148 115.168,78.211 115.168,78.289 C115.355,80.16 115.729,81.719 116.4,83.294 C117.087,84.915 117.882,86.069 118.912,86.958 C119.084,87.107 119.255,87.241 119.424,87.36 C118.353,88.184 117.842,88.564 116.965,89.208 C116.402,89.621 115.732,90.113 114.952,90.687 C113.253,89.096 111.928,87.096 110.769,84.463 C109.396,81.345 108.663,78.226 108.445,74.547 L108.445,74.516 C108.242,70.836 108.601,67.67 109.615,64.396 C110.629,61.122 111.986,58.752 113.951,56.803 C115.917,54.854 117.898,53.871 120.284,53.747 C120.471,53.736 120.655,53.732 120.838,53.732 z M141.102,79.262 C146.122,79.242 152.162,80.887 159.474,85.587 C163.965,88.507 167.46,88.751 175.508,92.196 L175.518,92.2 L175.528,92.204 C179.4,93.792 181.673,95.862 182.783,98.042 C183.893,100.222 183.921,102.586 182.991,105.072 C181.132,110.046 175.199,115.28 166.873,117.878 L166.866,117.882 L166.858,117.885 C162.799,119.204 159.259,122.115 155.085,124.501 C150.912,126.886 146.19,128.81 139.769,128.439 C139.769,128.439 139.769,128.439 139.769,128.439 C134.302,128.12 131.035,126.265 128.08,123.892 C125.125,121.518 122.55,118.536 118.78,116.323 L118.771,116.317 L118.761,116.311 C112.688,112.88 109.372,108.912 108.332,105.471 C107.291,102.031 108.268,99.094 111.281,96.837 C114.668,94.299 117.022,92.573 118.589,91.423 C120.146,90.281 120.794,89.853 121.29,89.377 C121.293,89.373 121.295,89.371 121.298,89.369 C121.298,89.369 121.3,89.365 121.3,89.365 C123.845,86.957 127.903,82.569 134.019,80.464 C136.124,79.74 138.473,79.272 141.102,79.262 z M176.201,100.012 C174.035,100.141 171.766,101.256 169.125,102.73 C166.484,104.204 163.513,106.089 160.294,107.946 C153.856,111.66 146.445,115.212 139.08,115.212 C131.704,115.212 125.811,111.806 121.39,108.305 C119.18,106.554 117.356,104.791 115.899,103.426 C115.17,102.744 114.538,102.163 113.948,101.709 C113.359,101.255 112.879,100.804 111.892,100.804 L111.845,102.877 C111.774,103.57 111.702,103.549 111.73,103.568 C111.776,103.598 112.005,103.677 112.272,103.883 C112.706,104.216 113.308,104.761 114.022,105.429 C115.45,106.766 117.348,108.605 119.685,110.456 C124.359,114.158 130.858,117.956 139.08,117.956 C147.314,117.956 155.104,114.109 161.667,110.323 C164.949,108.43 167.929,106.54 170.464,105.126 C172.998,103.712 175.13,102.825 176.365,102.751 L176.201,100.012 z M183.52,109.861 C188.988,131.409 201.707,162.533 209.882,177.722 C214.227,185.78 222.872,202.902 226.607,223.53 C228.974,223.458 231.579,223.802 234.37,224.515 C244.135,199.209 226.089,171.95 217.837,164.359 C214.506,161.128 214.345,159.68 215.997,159.748 C224.95,167.663 236.704,183.581 240.98,201.549 C242.93,209.742 243.346,218.355 241.253,226.855 C242.277,227.28 243.317,227.743 244.37,228.241 C260.045,235.871 265.843,242.506 263.055,251.562 C262.137,251.529 261.234,251.533 260.353,251.554 C260.271,251.556 260.189,251.558 260.108,251.56 C262.377,244.382 257.349,239.088 243.949,233.028 C230.051,226.916 218.976,227.524 217.104,239.92 C216.984,240.569 216.888,241.231 216.814,241.902 C215.776,242.262 214.732,242.723 213.686,243.295 C207.159,246.864 203.597,253.341 201.616,261.285 C199.637,269.223 199.069,278.818 198.523,289.605 C198.523,289.607 198.523,289.609 198.523,289.611 C198.189,295.035 195.958,302.371 193.696,310.141 C170.928,326.375 139.329,333.409 112.5,315.106 C110.682,312.231 108.596,309.383 106.449,306.573 C105.078,304.779 103.67,302.996 102.27,301.238 C105.024,301.24 107.365,300.789 109.257,299.931 C111.61,298.865 113.263,297.152 114.081,294.953 C115.717,290.555 114.074,284.351 108.837,277.266 C103.601,270.181 94.733,262.186 81.702,254.197 C81.702,254.197 81.7,254.197 81.7,254.195 C72.127,248.242 66.773,240.944 64.267,233.021 C61.761,225.097 62.112,216.529 64.044,208.07 C67.751,191.832 77.277,176.04 83.355,166.13 C84.992,164.926 83.94,168.364 77.202,180.871 C71.164,192.306 59.874,218.695 75.331,239.295 C75.744,224.635 79.247,209.684 85.126,195.699 C93.69,176.294 111.603,142.643 113.025,115.823 C113.759,116.356 116.28,118.056 117.403,118.694 C117.405,118.698 117.408,118.698 117.41,118.698 C120.696,120.633 123.164,123.46 126.361,126.028 C129.563,128.601 133.565,130.823 139.61,131.176 L139.61,131.176 C146.665,131.584 152.043,129.399 156.449,126.881 C160.848,124.366 164.362,121.583 167.692,120.497 C167.697,120.494 167.702,120.494 167.707,120.492 C174.742,118.293 180.336,114.4 183.52,109.86 z M228.206,233.224 C231.056,233.211 234.508,234.16 238.287,235.85 C248.457,240.544 251.639,244.566 248.863,250.476 C246.523,254.935 236.509,262.03 229.645,260.159 C222.641,258.35 219.225,248.262 220.364,240.637 C220.974,235.459 223.904,233.244 228.206,233.224 z M216.699,247.157 C217.274,256.481 221.889,265.99 230.051,268.049 C238.982,270.401 251.859,262.741 257.296,256.493 C258.38,256.449 259.44,256.396 260.469,256.371 C265.238,256.256 269.238,256.528 273.325,260.101 L273.339,260.113 L273.354,260.125 C276.495,262.785 277.988,267.812 279.282,273.443 C280.577,279.074 281.613,285.207 285.496,289.576 L285.501,289.582 L285.507,289.588 C292.972,297.869 295.371,303.466 295.167,307.038 C294.963,310.611 292.375,313.263 287.597,316.144 C278.045,321.903 261.119,326.911 250.309,340.001 C240.922,351.167 229.475,357.3 219.394,358.096 C209.314,358.891 200.616,354.709 195.489,344.421 L195.477,344.398 L195.465,344.375 C192.284,338.326 193.609,328.78 196.289,318.711 C198.969,308.642 202.819,298.304 203.334,289.9 L203.334,289.887 L203.334,289.874 C203.879,279.108 204.482,269.705 206.291,262.45 C208.101,255.196 210.95,250.282 215.998,247.521 C216.233,247.393 216.466,247.271 216.698,247.157 z M52.774,247.861 C53.527,247.864 54.325,247.927 55.174,248.055 C60.888,248.92 65.871,252.914 70.672,259.423 C75.473,265.932 79.94,274.817 84.532,284.673 L84.537,284.686 L84.543,284.697 C88.233,292.396 96.02,300.861 102.618,309.497 C109.217,318.133 114.324,326.802 113.659,333.437 L113.656,333.465 L113.654,333.494 C112.794,344.81 106.408,350.97 96.605,353.208 C86.806,355.446 73.521,353.216 60.251,346.283 C60.247,346.281 60.243,346.279 60.24,346.277 C45.559,338.505 28.094,339.277 16.891,336.938 C11.288,335.768 7.632,334.009 5.954,330.742 C4.276,327.474 4.239,321.773 7.805,312.053 L7.82,312.01 L7.835,311.967 C9.598,306.529 8.293,300.58 7.437,294.996 C6.581,289.411 6.162,284.332 8.07,280.791 L8.078,280.775 L8.087,280.759 C10.529,276.053 14.112,274.37 18.558,272.776 C23.004,271.181 28.276,269.929 32.44,265.758 L32.461,265.736 L32.483,265.714 C36.332,261.655 39.223,256.568 42.606,252.957 C45.461,249.91 48.318,247.891 52.624,247.861 C52.674,247.861 52.724,247.861 52.774,247.861 z" fill="#29495C" id="path154"/>
  </g>
</svg>
